<svg xmlns="http://www.w3.org/2000/svg" xmlns:xlink="http://www.w3.org/1999/xlink" viewBox="0 0 205.29 206.41"><defs><style>.cls-1{isolation:isolate;}.cls-2{fill:url(#linear-gradient);}.cls-3,.cls-4,.cls-5{mix-blend-mode:multiply;}.cls-3{fill:url(#linear-gradient-2);}.cls-4{fill:url(#linear-gradient-3);}.cls-5{fill:url(#linear-gradient-4);}.cls-6{mix-blend-mode:screen;fill:url(#radial-gradient);}</style><linearGradient id="linear-gradient" x1="22.08" y1="-31.13" x2="183.09" y2="143.87" gradientUnits="userSpaceOnUse"><stop offset="0" stop-color="#4000ff"/><stop offset="1" stop-color="#d300ff"/></linearGradient><linearGradient id="linear-gradient-2" x1="179.15" y1="208.32" x2="33.82" y2="4.32" gradientUnits="userSpaceOnUse"><stop offset="0" stop-color="#002b8d"/><stop offset="1" stop-color="#fff"/></linearGradient><linearGradient id="linear-gradient-3" x1="271.31" y1="70.98" x2="11.7" y2="62.44" xlink:href="#linear-gradient-2"/><linearGradient id="linear-gradient-4" x1="268.01" y1="70.87" x2="14.78" y2="62.54" xlink:href="#linear-gradient-2"/><radialGradient id="radial-gradient" cx="99.17" cy="120.68" r="89.52" gradientUnits="userSpaceOnUse"><stop offset="0" stop-color="#fff"/><stop offset="1"/></radialGradient></defs><g class="cls-1"><g id="Layer_2" data-name="Layer 2"><g id="Logo"><g id="Fox"><path id="Fox-2" data-name="Fox" class="cls-2" d="M202.81,1A5.72,5.72,0,0,0,196.64.8L138.23,35.3H67.06L8.64.8A5.73,5.73,0,0,0,.08,6.71L15.26,93.86l-4.89,23.26a1.49,1.49,0,0,0,0,.21,5.35,5.35,0,0,0-.08,1.06c0,.14,0,.27,0,.41a6.32,6.32,0,0,0,.17,1l.09.36a6.16,6.16,0,0,0,.54,1.17l0,0v0a6.09,6.09,0,0,0,.46.55,5,5,0,0,0,.46.57l0,0,0,0L98.7,204.83a5.72,5.72,0,0,0,7.89,0l86.67-82.38a5.73,5.73,0,0,0,1.66-5.33L190,93.86,205.2,6.71A5.73,5.73,0,0,0,202.81,1Z"/><path class="cls-3" d="M67.06,35.3,8.64.8A5.73,5.73,0,0,0,.08,6.71L15.26,93.86l123-58.56Z"/><polygon class="cls-4" points="138.23 35.3 15.26 93.86 11.87 74.4 138.23 35.3"/><polygon class="cls-5" points="138.23 35.3 15.26 93.86 14.46 89.27 138.23 35.3"/><polygon class="cls-6" points="138.23 35.3 14.04 99.65 15.26 93.86 138.23 35.3"/></g></g></g></g></svg>